# xmcd
#
# Track frame offsets:
#	150
#	10113
#	25332
#	35747
#	48597
#	60387
#	71646
#	83376
#	96352
#	109614
#
# Disc length: 1597 seconds
#
# Revision: 0
# Processed by: cddbd v1.5.1PL0 Copyright (c) Steve Scherf et al.
# Submitted via: dBpowerAMP V4.0
#
DISCID=78063b0a
DTITLE=Merle Haggard - Hag
DYEAR=1971
DGENRE=Country
TTITLE0=Soldier's Last Letter
TTITLE1=Shelly's Winter Love
TTITLE2=Jesus Take A Hold
TTITLE3=I Can't Be Myself
TTITLE4=I'm A Good Loser
TTITLE5=Sidewalks Of Chicago
TTITLE6=No Reason To Quit
TTITLE7=If You've Got The Time
TTITLE8=The Farmer's Daughter
TTITLE9=I've Done It All
EXTD=by Sound_Man73
EXTT0=
EXTT1=
EXTT2=
EXTT3=
EXTT4=
EXTT5=
EXTT6=
EXTT7=
EXTT8=
EXTT9=
PLAYORDER=
